<?xml version="1.0" encoding="utf-8"?>
<!-- Generator: Adobe Illustrator 24.2.1, SVG Export Plug-In . SVG Version: 6.00 Build 0)  -->
<svg version="1.1" id="Layer_1" xmlns="http://www.w3.org/2000/svg" xmlns:xlink="http://www.w3.org/1999/xlink" x="0px" y="0px"
	 viewBox="0 0 1024 768" style="enable-background:new 0 0 1024 768;" xml:space="preserve">
<path d="M400.48,418.3h-11.34c-28.24,0-53.82-11.46-76.75-34.4c-22.94-22.93-34.4-50.02-34.4-81.28c0-32.25,11.46-59.22,34.4-80.91
	c22.94-21.67,51.04-32.51,84.31-32.51c37.81,0,68.68,15.12,92.62,45.37c23.94,30.24,35.92,72.34,35.92,126.27
	c0,49.41-10.46,95.91-31.38,139.5c-20.92,43.61-46.63,78.26-77.12,103.97s-58.1,38.56-82.79,38.56c-15.63,0-28.35-4.91-38.19-14.74
	c-9.82-9.83-14.74-21.8-14.74-35.92c0-22.68,10.32-39.32,31-49.9c26.72-15.62,47.64-32.76,62.76-51.42
	C389.89,472.24,398.46,448.05,400.48,418.3z M733.17,418.3h-9.07c-28.73,0-54.82-11.34-78.25-34.03
	c-23.45-22.68-35.16-49.9-35.16-81.66s11.59-58.6,34.78-80.53c23.18-21.93,51.42-32.89,84.69-32.89c38.3,0,69.3,14.88,93,44.61
	c23.69,29.75,35.54,72.09,35.54,127.03c0,50.92-10.46,97.92-31.37,141.02c-20.93,43.1-46.64,77.39-77.12,102.83
	c-30.51,25.46-58.35,38.18-83.56,38.18c-16.14,0-28.99-4.78-38.56-14.37c-9.58-9.57-14.37-21.67-14.37-36.29
	c0-22.17,10.32-38.81,31-49.9c28.73-16.63,50.16-33.89,64.27-51.79C723.08,472.62,731.16,448.54,733.17,418.3z"/>
</svg>
