<?xml version="1.0" encoding="utf-8"?>
<!-- Generator: Adobe Illustrator 24.2.1, SVG Export Plug-In . SVG Version: 6.00 Build 0)  -->
<svg version="1.1" id="Layer_1" xmlns="http://www.w3.org/2000/svg" xmlns:xlink="http://www.w3.org/1999/xlink" x="0px" y="0px"
	 viewBox="0 0 1024 768" style="enable-background:new 0 0 1024 768;" xml:space="preserve">
<style type="text/css">
	.st0{fill:#FFFFFF;}
</style>
<path class="st0" d="M365.81,368.14h9.9c26.88,0,51.05,10.26,72.52,30.77c21.45,20.52,32.18,46.1,32.18,76.76
	c0,30.19-10.73,55.07-32.18,74.63c-21.47,19.58-48,29.36-79.59,29.36c-34.43,0-63.08-13.79-85.95-41.38
	c-22.88-27.59-34.31-66.85-34.31-117.79c0-46.69,10.02-90.43,30.07-131.23c20.03-40.79,44.56-73.1,73.57-96.92
	c28.99-23.81,54.82-35.72,77.46-35.72c15.09,0,26.88,4.49,35.37,13.44c8.49,8.97,12.73,20.52,12.73,34.66
	c0,20.76-9.2,36.08-27.59,45.98c-25,13.69-44.81,29.71-59.42,48.1C375.95,317.2,367.69,340.32,365.81,368.14z M678.49,368.14h9.2
	c26.41,0,50.34,10.26,71.81,30.77c21.45,20.52,32.18,46.1,32.18,76.76c0,29.71-10.73,54.72-32.18,74.99
	c-21.47,20.28-48,30.42-79.59,30.42c-34.91,0-63.67-14.15-86.31-42.45s-33.96-67.67-33.96-118.14c0-36.31,5.9-70.5,17.69-102.58
	c11.78-32.07,27-60.01,45.62-83.83c18.63-23.81,38.67-42.68,60.14-56.59c21.45-13.9,40.67-20.87,57.65-20.87
	c15.56,0,27.47,4.37,35.73,13.09c8.24,8.73,12.38,20.41,12.38,35.02c0,21.22-9.2,36.55-27.59,45.98
	c-25.94,14.62-45.52,30.77-58.72,48.46C689.34,316.85,681.32,339.84,678.49,368.14z"/>
</svg>
